<?xml version="1.0" encoding="UTF-8"?>
<svg width="97px" height="111px" viewBox="0 0 97 111" version="1.1" xmlns="http://www.w3.org/2000/svg" xmlns:xlink="http://www.w3.org/1999/xlink">
    <title>newsletter</title>
    <g id="Welcome" stroke="none" stroke-width="1" fill="none" fill-rule="evenodd">
        <g id="Home" transform="translate(-912.000000, -3292.000000)" fill-rule="nonzero">
            <g id="footer" transform="translate(0.000000, 3192.000000)">
                <g id="newsletter" transform="translate(912.000000, 100.000000)">
                    <path d="M85.5880773,47 L94.2264553,57.6599651 C96.021036,59.8743874 97,62.6365515 97,65.4849424 L97,102.161522 C97,107.042946 93.0362589,111 88.1465857,111 L8.7728596,111 C3.92771526,111 0,107.078911 0,102.241941 L0,65.4849424 C0,62.6365515 0.978963953,59.8743874 2.77354473,57.6599651 L11.4119227,47 L85.5880773,47 Z" id="Path" fill="#F251A1"></path>
                    <path d="M11,67.4581173 L11,5.72449361 C11,2.56296392 13.6402383,0 16.829648,0 L79.2784372,0 C82.4680711,0 85,2.56296392 85,5.72449361 L85,67.9026518 L47.8216146,91 L11,67.4581173 Z" id="Path" fill="#F7F3F1"></path>
                    <path d="M79.2499866,0 L70.1236572,0 C73.3291517,0 75.8736707,2.56297018 75.8736707,5.72428532 L75.8736707,67.9028177 L43,88.2525475 L47.6367441,91 L85,67.9028177 L85,5.72428532 C85,2.56297018 82.4552557,0 79.2499866,0 Z" id="Path" fill="#EFE7E3"></path>
                    <path d="M85,5.81541935 C85,2.60377419 82.4678545,0 79.2784545,0 L16.8296303,0 C13.6402303,0 11,2.60377419 11,5.81541935 L11,14 L85,14 L85,5.81541935 Z" id="Path" fill="#8EE6F3"></path>
                    <g id="Group" transform="translate(18.000000, 0.000000)" fill="#72D1FB">
                        <path d="M62.1596786,-8.00611533e-16 L53.096073,-8.00611533e-16 C56.2795366,-8.00611533e-16 58.8065675,2.59853521 58.8065675,5.80371831 L58.8065675,13.971831 L67.8701731,13.971831 L67.8701731,5.80371831 C67.8701731,2.59853521 65.3429184,-8.00611533e-16 62.1596786,-8.00611533e-16 Z" id="Path"></path>
                        <path d="M60.2344709,8.66929577 C59.6888238,8.66929577 59.1409386,8.37611268 58.8401389,7.91661972 C58.1937776,6.92642254 58.7562104,5.56214085 59.9079331,5.32056338 C60.9363369,5.11188732 61.9132645,5.93938028 61.9132645,6.97915493 C61.9130407,7.89859155 61.1473891,8.66929577 60.2344709,8.66929577 Z" id="Path"></path>
                        <path d="M24.786881,8.67605634 L1.73452215,8.67605634 C0.807280179,8.67605634 0.0559523274,7.91932394 0.0559523274,6.98591549 C0.0559523274,6.05250704 0.807280179,5.29577465 1.73452215,5.29577465 L24.786881,5.29577465 C25.714123,5.29577465 26.4654509,6.05250704 26.4654509,6.98591549 C26.4654509,7.91932394 25.7138992,8.67605634 24.786881,8.67605634 Z" id="Path"></path>
                    </g>
                    <polygon id="Path" fill="#FFD36C" points="21 24 76 24 76 44 21 44"></polygon>
                    <path d="M75.3908218,55 L20.6093445,55 C18.4635518,55 18.4635518,52 20.6093445,52 L75.3908218,52 C77.5363927,52 77.5363927,55 75.3908218,55 Z" id="Path" fill="#EBE1DC"></path>
                    <path d="M75.3908218,65 L20.6093445,65 C18.4635518,65 18.4635518,62 20.6093445,62 L75.3908218,62 C77.5363927,62 77.5363927,65 75.3908218,65 Z" id="Path" fill="#EBE1DC"></path>
                    <path d="M75.3908218,74 L20.6093445,74 C18.4635518,74 18.4635518,71 20.6093445,71 L75.3908218,71 C77.5363927,71 77.5363927,74 75.3908218,74 Z" id="Path" fill="#EBE1DC"></path>
                    <path d="M63.3708291,83 L34.6293393,83 C32.4568869,83 32.4568869,80 34.6293393,80 L63.3708291,80 C65.543057,80 65.543057,83 63.3708291,83 Z" id="Path" fill="#EBE1DC"></path>
                    <path d="M48.2661675,91.3945578 L0.801295981,61 C0.277018828,62.3939131 0,63.8793807 0,65.3903673 L0,102.223742 C0,107.070763 3.92771526,111 8.7728596,111 L88.1465857,111 C93.0362589,111 97,107.034724 97,102.143156 L97,65.3903673 C97,63.9785462 96.7596783,62.5882148 96.3002925,61.2746638 L48.2661675,91.3945578 Z" id="Path" fill="#FA9084"></path>
                    <path d="M96.2898105,61 L85.9860438,67.4428708 L85.9860438,102.094235 C85.9860438,107.012821 81.9629234,111 77,111 L88.0139562,111 C92.9768797,111 97,107.012821 97,102.094235 L97,65.1384371 C96.9997729,63.7188177 96.7558511,62.3208065 96.2898105,61 L96.2898105,61 Z" id="Path" fill="#FF6CB5"></path>
                </g>
            </g>
        </g>
    </g>
</svg>