<svg xmlns="http://www.w3.org/2000/svg" width="19.747" height="19.75" viewBox="0 0 19.747 19.75"><path d="M18.079,22a8.307,8.307,0,0,1-3.88-1.322A25.221,25.221,0,0,1,8.106,16.12a23.138,23.138,0,0,1-4.575-6.091c-1.624-2.954-1.347-4.5-1.038-5.164A4.123,4.123,0,0,1,4.109,3.132a7.772,7.772,0,0,1,1.263-.67l.122-.053a1.179,1.179,0,0,1,.967-.088,2.832,2.832,0,0,1,.92.705,15.273,15.273,0,0,1,2.3,3.413,3.4,3.4,0,0,1,.451,1.4,2.211,2.211,0,0,1-.562,1.314c-.058.079-.115.154-.171.228-.335.441-.409.568-.361.8a8.361,8.361,0,0,0,2.036,3.02,8.021,8.021,0,0,0,2.986,1.987c.237.051.367-.026.822-.374.065-.05.132-.1.2-.153a2.221,2.221,0,0,1,1.334-.6h0a3.2,3.2,0,0,1,1.4.493,16.828,16.828,0,0,1,3.4,2.283,2.844,2.844,0,0,1,.708.917,1.188,1.188,0,0,1-.088.97c-.016.036-.034.076-.053.121a7.78,7.78,0,0,1-.674,1.26,4.12,4.12,0,0,1-1.736,1.613,2.972,2.972,0,0,1-1.3.286Z" transform="translate(-2.257 -2.25)"/></svg>