<svg xmlns="http://www.w3.org/2000/svg" width="23.283" height="17.469" viewBox="0 0 23.283 17.469"><path d="M24.446,6a1.455,1.455,0,0,0-.3,0H3.776a1.455,1.455,0,0,0-.386.058L13.9,16.525Z" transform="translate(-2.328 -5.989)" fill="#fff"/><path d="M25.125,7.39,14.532,17.94a1.455,1.455,0,0,1-2.052,0L1.981,7.47a1.455,1.455,0,0,0-.051.364V22.385a1.455,1.455,0,0,0,1.455,1.455H23.757a1.455,1.455,0,0,0,1.455-1.455V7.834a1.455,1.455,0,0,0-.087-.444Zm-20.743,15H3.371v-1.04L8.66,16.1l1.026,1.026Zm19.361,0H22.724l-5.3-5.26L18.446,16.1l5.289,5.246Z" transform="translate(-1.93 -6.371)" fill="#fff"/></svg>