<svg xmlns="http://www.w3.org/2000/svg" width="22.911" height="18.608" viewBox="0 0 22.911 18.608"><path d="M20.556,8.018c.015.2.015.407.015.611a13.269,13.269,0,0,1-13.36,13.36A13.27,13.27,0,0,1,0,19.881a9.713,9.713,0,0,0,1.134.058,9.4,9.4,0,0,0,5.83-2.006,4.7,4.7,0,0,1-4.39-3.256,5.921,5.921,0,0,0,.887.073,4.966,4.966,0,0,0,1.236-.16A4.7,4.7,0,0,1,.93,9.981V9.923a4.729,4.729,0,0,0,2.122.6A4.7,4.7,0,0,1,1.6,4.238a13.347,13.347,0,0,0,9.682,4.914,5.3,5.3,0,0,1-.116-1.076,4.7,4.7,0,0,1,8.127-3.213,9.245,9.245,0,0,0,2.98-1.134,4.683,4.683,0,0,1-2.064,2.588,9.413,9.413,0,0,0,2.7-.727A10.094,10.094,0,0,1,20.556,8.018Z" transform="translate(0 -3.381)" fill="#fff"/></svg>