<svg xmlns="http://www.w3.org/2000/svg" width="19.638" height="19.638" viewBox="0 0 19.638 19.638"><path d="M7.91,3h9.819a4.91,4.91,0,0,1,4.91,4.91v9.819a4.91,4.91,0,0,1-4.91,4.91H7.91A4.91,4.91,0,0,1,3,17.729V7.91A4.91,4.91,0,0,1,7.91,3Z" transform="translate(-3 -3)" fill="#fff"/><path d="M20.133,15.4a4.056,4.056,0,1,1-3.417-3.417A4.056,4.056,0,0,1,20.133,15.4Z" transform="translate(-6.266 -6.207)" stroke="#fff" stroke-linecap="round" stroke-linejoin="round" stroke-width="2"/><path d="M14.084,12.8a1.015,1.015,0,1,1-.855-.855A1.015,1.015,0,0,1,14.084,12.8Z" transform="translate(1.846 -8.697)" fill="#fff"/></svg>