<?xml version="1.0" encoding="UTF-8"?>
<svg width="157px" height="78px" viewBox="0 0 157 78" version="1.1" xmlns="http://www.w3.org/2000/svg" xmlns:xlink="http://www.w3.org/1999/xlink">
    <title>logo</title>
    <g id="Welcome" stroke="none" stroke-width="1" fill="none" fill-rule="evenodd">
        <g id="Home" transform="translate(-1524.000000, -16.000000)">
            <g id="logo" transform="translate(1524.104000, 16.160000)">
                <path d="M62.8175686,34.84 C64.3339085,34.84 65.7326013,33.9158929 67.0136471,32.0676786 C68.3731242,30.1658929 69.0659346,29.215 69.0920784,29.215 C69.2227974,29.215 69.4450196,29.2953571 69.7587451,29.4560714 C70.0724706,29.6167857 70.4254118,29.7908929 70.8175686,29.9783929 C71.2097255,30.1658929 71.5822745,30.34 71.9352157,30.5007143 C72.2881569,30.6614286 72.5430588,30.7417857 72.6999216,30.7417857 C73.2489412,30.7417857 73.7783529,30.5074107 74.2881569,30.0386607 C74.7979608,29.5699107 75.2424052,28.93375 75.6214902,28.1301786 C76.0005752,27.3266071 76.3077647,26.4091964 76.5430588,25.3779464 C76.7783529,24.3466964 76.896,23.2953571 76.896,22.2239286 C76.896,19.0632143 76.7260654,17.2685714 76.3861961,16.84 L76.3861961,16.84 L73.4450196,18.5676786 C73.9156078,18.6748214 74.150902,19.9739286 74.150902,22.465 C74.150902,25.2507143 73.523451,26.6435714 72.268549,26.6435714 C71.8502484,26.6435714 71.4384837,26.4694643 71.0332549,26.12125 C70.6280261,25.7730357 70.2620131,25.324375 69.9352157,24.7752679 C69.6084183,24.2261607 69.3469804,23.6100893 69.150902,22.9270536 C68.9548235,22.2440179 68.8567843,21.5676786 68.8567843,20.8980357 C68.8567843,20.7641071 68.8698562,20.6435714 68.896,20.5364286 L68.896,20.5364286 L66.3861961,21.9426786 C66.5953464,22.2641071 66.6999216,22.6792857 66.6999216,23.1882143 C66.6999216,28.0364286 65.641098,30.4605357 63.523451,30.4605357 C62.0593987,30.4605357 61.3273725,28.6658929 61.3273725,25.0766071 C61.3273725,24.4873214 61.4188758,24.1257143 61.6018824,23.9917857 L61.6018824,23.9917857 L58.9744314,25.4382143 C58.9482876,25.6257143 58.9286797,25.8333036 58.9156078,26.0609821 C58.9025359,26.2886607 58.896,26.5230357 58.896,26.7641071 C58.896,32.1480357 60.2031895,34.84 62.8175686,34.84 Z" id="ّ" fill="#37CAD6" fill-rule="nonzero"></path>
                <path d="M151.719781,66.6956701 C151.897951,66.6956701 152.046426,66.6358763 152.165206,66.5162887 C152.283986,66.396701 152.343376,66.2503093 152.343376,66.0771134 C152.343376,65.9121649 152.283986,65.7698969 152.165206,65.6503093 C152.046426,65.5307216 151.897951,65.4709278 151.719781,65.4709278 C151.550095,65.4709278 151.403741,65.5307216 151.280719,65.6503093 C151.157697,65.7698969 151.096186,65.9121649 151.096186,66.0771134 C151.096186,66.2503093 151.157697,66.396701 151.280719,66.5162887 C151.403741,66.6358763 151.550095,66.6956701 151.719781,66.6956701 Z M153.272405,66.6956701 C153.442091,66.6956701 153.588445,66.6358763 153.711467,66.5162887 C153.834489,66.396701 153.896,66.2503093 153.896,66.0771134 C153.896,65.9121649 153.834489,65.7698969 153.711467,65.6503093 C153.588445,65.5307216 153.442091,65.4709278 153.272405,65.4709278 C153.094235,65.4709278 152.943639,65.5307216 152.820617,65.6503093 C152.697595,65.7698969 152.636084,65.9121649 152.636084,66.0771134 C152.636084,66.2503093 152.697595,66.396701 152.820617,66.5162887 C152.943639,66.6358763 153.094235,66.6956701 153.272405,66.6956701 Z M152.623357,73.883299 C152.962729,73.883299 153.246952,73.7554639 153.476028,73.4997938 C153.679651,73.2771134 153.781462,73.0131959 153.781462,72.7080412 L153.781462,72.7080412 L153.781462,68.1925773 L152.699716,68.1925773 L152.699716,72.5348454 C152.699716,72.6668041 152.657294,72.7740206 152.572451,72.8564948 C152.479124,72.9554639 152.360344,73.0049485 152.216111,73.0049485 L152.216111,73.0049485 L150.408959,73.0049485 L150.408959,73.883299 L152.623357,73.883299 Z M147.112814,66.6956701 C147.290984,66.6956701 147.439459,66.6358763 147.558239,66.5162887 C147.677019,66.396701 147.736409,66.2503093 147.736409,66.0771134 C147.736409,65.9121649 147.677019,65.7698969 147.558239,65.6503093 C147.439459,65.5307216 147.290984,65.4709278 147.112814,65.4709278 C146.943128,65.4709278 146.796774,65.5307216 146.673752,65.6503093 C146.55073,65.7698969 146.489219,65.9121649 146.489219,66.0771134 C146.489219,66.2503093 146.55073,66.396701 146.673752,66.5162887 C146.796774,66.6358763 146.943128,66.6956701 147.112814,66.6956701 Z M148.945419,73.883299 C149.301759,73.883299 149.598709,73.7389691 149.836269,73.4503093 L149.836269,73.4503093 L149.874449,73.4503093 L150.230789,73.883299 L150.498044,73.883299 L150.498044,73.0049485 L150.052619,73.0049485 C150.078072,72.9059794 150.090798,72.8070103 150.090798,72.7080412 L150.090798,72.7080412 L150.090798,71.1369072 C150.090798,70.254433 149.853238,69.5410309 149.378118,68.996701 C148.826639,68.3616495 148.024874,68.0441237 146.972823,68.0441237 C146.29408,68.0441237 145.564432,68.1637113 144.783877,68.4028866 L144.783877,68.4028866 L144.783877,69.2317526 C145.70018,69.0503093 146.378923,68.9595876 146.820106,68.9595876 C147.549754,68.9595876 148.105475,69.1657732 148.487268,69.5781443 C148.835124,69.9492784 149.009052,70.4564948 149.009052,71.0997938 L149.009052,71.0997938 L149.009052,72.5348454 C149.009052,72.8482474 148.84785,73.0049485 148.525447,73.0049485 L148.525447,73.0049485 L143.091262,73.0049485 L143.091262,73.883299 L148.945419,73.883299 Z M141.627723,73.883299 C141.984063,73.883299 142.281013,73.7389691 142.518573,73.4503093 L142.518573,73.4503093 L142.556752,73.4503093 L142.925819,73.883299 L143.193074,73.883299 L143.193074,73.0049485 L142.747649,73.0049485 C142.773102,72.9142268 142.785828,72.8152577 142.785828,72.7080412 L142.785828,72.7080412 L142.785828,71.0626804 C142.785828,70.2049485 142.505847,69.4997938 141.945884,68.9472165 C141.326531,68.3451546 140.507797,68.0441237 139.489683,68.0441237 C137.597688,68.0441237 136.074758,69.0008247 134.920895,70.9142268 L134.920895,70.9142268 L134.920895,65.025567 L133.851876,65.025567 L133.851876,73.0049485 L131.561118,73.0049485 L131.561118,73.883299 L141.627723,73.883299 Z M141.220477,73.0049485 L134.920895,73.0049485 C135.52328,71.4049485 136.31656,70.2668041 137.300738,69.5905155 C137.937059,69.1616495 138.615802,68.9472165 139.336966,68.9472165 C139.973288,68.9472165 140.495071,69.0915464 140.902317,69.3802062 C141.428342,69.7430928 141.691355,70.2668041 141.691355,70.9513402 L141.691355,70.9513402 L141.691355,72.5348454 C141.691355,72.8482474 141.534396,73.0049485 141.220477,73.0049485 L141.220477,73.0049485 Z M128.774031,76.84 C129.724271,76.84 130.496341,76.6131959 131.090241,76.1595876 C131.768983,75.64 132.121081,74.8812371 132.146534,73.883299 L132.146534,73.883299 L132.490148,73.883299 L132.490148,73.0049485 L129.652154,73.0049485 L129.652154,73.3513402 L130.097579,73.883299 L131.064788,73.883299 C131.039335,74.6997938 130.759353,75.2647423 130.224843,75.5781443 C129.809113,75.8338144 129.075223,75.9616495 128.023171,75.9616495 C126.928699,75.9616495 126.160871,75.796701 125.719688,75.4668041 C125.278505,75.1369072 125.057914,74.5637113 125.057914,73.7472165 L125.057914,73.7472165 L125.057914,71.7307216 L124.523404,71.7307216 L123.976167,72.1637113 L123.976167,73.7719588 C123.976167,74.7286598 124.268875,75.4750515 124.854291,76.011134 C125.465159,76.5637113 126.300861,76.84 127.361397,76.84 L127.361397,76.84 L128.774031,76.84 Z M118.898322,73.883299 C119.263147,73.883299 119.555854,73.7389691 119.776446,73.4503093 C119.954616,73.2358763 120.043701,72.9884536 120.043701,72.7080412 L120.043701,72.7080412 L120.043701,71.1369072 C120.043701,70.254433 119.806141,69.5410309 119.331021,68.996701 C118.779542,68.3616495 117.977777,68.0441237 116.925726,68.0441237 C116.246983,68.0441237 115.517335,68.1637113 114.73678,68.4028866 L114.73678,68.4028866 L114.73678,69.2317526 C115.653083,69.0503093 116.331826,68.9595876 116.773009,68.9595876 C117.502657,68.9595876 118.058378,69.1657732 118.440171,69.5781443 C118.788027,69.9492784 118.961954,70.4564948 118.961954,71.0997938 L118.961954,71.0997938 L118.961954,72.5348454 C118.961954,72.8482474 118.800753,73.0049485 118.47835,73.0049485 L118.47835,73.0049485 L113.044165,73.0049485 L113.044165,73.883299 L118.898322,73.883299 Z M111.669711,73.883299 C111.907271,73.883299 112.127863,73.8131959 112.331485,73.6729897 C112.416328,73.6070103 112.492687,73.5327835 112.560561,73.4503093 L112.560561,73.4503093 L112.59874,73.4503093 L112.95508,73.883299 L113.145977,73.883299 L113.145977,73.0049485 L112.789637,73.0049485 C112.806605,72.9142268 112.81509,72.8152577 112.81509,72.7080412 L112.81509,72.7080412 L112.81509,70.8152577 C112.81509,70.0317526 112.556319,69.3843299 112.038778,68.8729897 C111.461846,68.3204124 110.702503,68.0441237 109.760747,68.0441237 C109.412891,68.0441237 109.086246,68.068866 108.780812,68.1183505 L108.780812,68.1183505 L108.780812,68.9472165 C108.942013,68.9142268 109.141394,68.897732 109.378954,68.897732 C110.193445,68.9059794 110.79583,69.1080412 111.186107,69.5039175 C111.550931,69.8915464 111.733343,70.3781443 111.733343,70.9637113 L111.733343,70.9637113 L111.733343,72.5348454 C111.733343,72.8482474 111.576384,73.0049485 111.262465,73.0049485 L111.262465,73.0049485 L107.495443,73.0049485 L107.495443,73.883299 L111.669711,73.883299 Z M102.913928,76.8276289 C103.270268,76.8276289 103.613882,76.7946392 103.944769,76.7286598 C104.445342,76.6214433 104.873798,76.4317526 105.230138,76.1595876 C105.934334,75.6235052 106.290674,74.8276289 106.299158,73.7719588 L106.299158,73.7719588 L106.299158,70.2956701 C106.299158,69.5369072 106.040388,68.9554639 105.522846,68.5513402 C105.090148,68.2131959 104.530185,68.0441237 103.842958,68.0441237 C102.935139,68.0441237 102.213975,68.3162887 101.679465,68.8606186 C101.178892,69.3802062 100.928606,70.0729897 100.928606,70.9389691 C100.928606,71.796701 101.166166,72.5018557 101.641286,73.054433 C102.175796,73.6812371 102.901202,73.9946392 103.817505,73.9946392 C104.301109,73.9946392 104.763503,73.9162887 105.204686,73.7595876 C105.196201,75.2276289 104.364741,75.9616495 102.710306,75.9616495 C102.430324,75.9616495 102.163069,75.9451546 101.908541,75.9121649 L101.908541,75.9121649 L101.908541,76.3080412 L102.328513,76.8152577 C102.515167,76.8235052 102.710306,76.8276289 102.913928,76.8276289 Z M103.893863,73.0296907 C103.342385,73.0296907 102.901202,72.8606186 102.570315,72.5224742 C102.197006,72.1595876 102.010352,71.6647423 102.010352,71.0379381 C102.010352,70.3781443 102.173675,69.8626804 102.50032,69.4915464 C102.826965,69.1204124 103.274511,68.9348454 103.842958,68.9348454 C104.165361,68.9348454 104.432616,69.0049485 104.644723,69.1451546 C105.018031,69.4008247 105.204686,69.7843299 105.204686,70.2956701 L105.204686,70.2956701 L105.204686,72.8070103 C104.814408,72.9554639 104.377468,73.0296907 103.893863,73.0296907 Z M98.3324143,73.883299 C98.6548172,73.883299 98.9263143,73.7637113 99.1469057,73.5245361 C99.3590129,73.3018557 99.4650664,73.0296907 99.4650664,72.7080412 L99.4650664,72.7080412 L99.4650664,70.8152577 C99.4650664,70.0317526 99.2062957,69.3843299 98.6887543,68.8729897 C98.1118229,68.3204124 97.3524793,68.0441237 96.4107236,68.0441237 C96.0628679,68.0441237 95.7362229,68.068866 95.4307887,68.1183505 L95.4307887,68.1183505 L95.4307887,68.9472165 C95.5919901,68.9142268 95.7913708,68.897732 96.0289308,68.897732 C96.8434222,68.9059794 97.4458065,69.1080412 97.8360836,69.5039175 C98.2009079,69.8915464 98.38332,70.3781443 98.38332,70.9637113 L98.38332,70.9637113 L98.38332,72.5348454 C98.38332,72.8482474 98.2263607,73.0049485 97.9124422,73.0049485 L97.9124422,73.0049485 L94.1454194,73.0049485 L94.1454194,73.883299 L98.3324143,73.883299 Z M89.882066,74.1925773 L90.4293024,73.7595876 L90.4293024,65.025567 L89.347556,65.025567 L89.347556,74.1925773 L89.882066,74.1925773 Z M86.4332039,73.883299 C86.7556068,73.883299 87.031346,73.7637113 87.2604217,73.5245361 C87.4810132,73.3018557 87.5913089,73.0296907 87.5913089,72.7080412 L87.5913089,72.7080412 L87.5913089,65.025567 L86.5095625,65.025567 L86.5095625,72.5348454 C86.5095625,72.6503093 86.4713832,72.7534021 86.3950246,72.8441237 C86.3101818,72.9513402 86.1871596,73.0049485 86.0259582,73.0049485 L86.0259582,73.0049485 L84.2188054,73.0049485 L84.2188054,73.883299 L86.4332039,73.883299 Z M83.1243326,66.6956701 C83.2940183,66.6956701 83.4403722,66.6358763 83.5633943,66.5162887 C83.6864165,66.396701 83.7479275,66.2503093 83.7479275,66.0771134 C83.7479275,65.9121649 83.6864165,65.7698969 83.5633943,65.6503093 C83.4403722,65.5307216 83.2940183,65.4709278 83.1243326,65.4709278 C82.9546468,65.4709278 82.8082929,65.5307216 82.6852708,65.6503093 C82.5622486,65.7698969 82.5007376,65.9121649 82.5007376,66.0771134 C82.5007376,66.2503093 82.5622486,66.396701 82.6852708,66.5162887 C82.8082929,66.6358763 82.9546468,66.6956701 83.1243326,66.6956701 Z M80.2863391,76.8276289 C80.5917733,76.8276289 80.880239,76.8028866 81.1517362,76.7534021 C81.8729004,76.6214433 82.4413476,76.3492784 82.8570776,75.9369072 C83.3661347,75.425567 83.6333897,74.7410309 83.6588425,73.883299 L83.6588425,73.883299 L84.3078904,73.883299 L84.3078904,73.0049485 L83.6588425,73.0049485 L83.6588425,68.1925773 L82.5770961,68.1925773 L82.5770961,73.7348454 C82.5770961,75.2193814 81.7456362,75.9616495 80.0827162,75.9616495 C79.7942505,75.9616495 79.5269955,75.9451546 79.2809512,75.9121649 L79.2809512,75.9121649 L79.2809512,76.3080412 L79.7009234,76.8152577 C79.8875776,76.8235052 80.0827162,76.8276289 80.2863391,76.8276289 Z M76.6720334,74.254433 C77.4525877,74.254433 78.0973934,73.9657732 78.6064505,73.3884536 C79.1494448,72.7698969 79.4209419,72.011134 79.4209419,71.1121649 C79.4209419,70.1472165 79.1494448,69.396701 78.6064505,68.8606186 C78.0634563,68.3245361 77.3889556,68.0564948 76.5829484,68.0564948 C75.9211742,68.0564948 75.3909063,68.1843299 74.9921449,68.44 C74.3812764,68.8358763 74.0758421,69.454433 74.0758421,70.2956701 L74.0758421,70.2956701 L74.0758421,72.5348454 C74.0758421,72.6668041 74.0291785,72.7781443 73.9358514,72.868866 C73.8425242,72.9595876 73.7279864,73.0049485 73.5922378,73.0049485 L73.5922378,73.0049485 L71.785085,73.0049485 L71.785085,73.883299 L73.9740307,73.883299 C74.3558235,73.883299 74.6612578,73.7389691 74.8903335,73.4503093 C75.3484849,73.9863918 75.9423849,74.254433 76.6720334,74.254433 Z M76.6211277,73.3760825 C76.0866177,73.3760825 75.5987713,73.1575258 75.1575885,72.7204124 L75.1575885,72.7204124 L75.1575885,70.2956701 C75.1575885,69.8668041 75.2975792,69.5245361 75.5775606,69.268866 C75.8236049,69.0461856 76.1417656,68.9348454 76.5320427,68.9348454 C77.0495841,68.9348454 77.4653141,69.1080412 77.7792327,69.454433 C78.1525413,69.8750515 78.3391955,70.4482474 78.3391955,71.1740206 C78.3391955,71.825567 78.1801152,72.3554639 77.8619545,72.7637113 C77.5437938,73.1719588 77.1301849,73.3760825 76.6211277,73.3760825 Z M71.87417,73.883299 L71.87417,73.0049485 L71.7087264,73.0049485 C71.5644936,73.0049485 71.4457136,72.9595876 71.3523864,72.868866 C71.2675436,72.7781443 71.2251222,72.6668041 71.2251222,72.5348454 L71.2251222,72.5348454 L71.2251222,65.025567 L70.1433758,65.025567 L70.1433758,72.7080412 C70.1433758,73.0791753 70.2876086,73.3843299 70.5760743,73.6235052 C70.7796972,73.796701 71.0172572,73.883299 71.2887543,73.883299 L71.2887543,73.883299 L71.87417,73.883299 Z M64.1874073,69.268866 C64.357093,69.268866 64.503447,69.2090722 64.6264691,69.0894845 C64.7494913,68.9698969 64.8110023,68.8235052 64.8110023,68.6503093 C64.8110023,68.4853608 64.7494913,68.3430928 64.6264691,68.2235052 C64.503447,68.1039175 64.357093,68.0441237 64.1874073,68.0441237 C64.0177216,68.0441237 63.8713677,68.1039175 63.7483456,68.2235052 C63.6253234,68.3430928 63.5638124,68.4853608 63.5638124,68.6503093 C63.5638124,68.8235052 63.6253234,68.9698969 63.7483456,69.0894845 C63.8713677,69.2090722 64.0177216,69.268866 64.1874073,69.268866 Z M65.0146252,76.84 C66.0412237,76.84 66.8557151,76.5802062 67.4580994,76.0606186 C68.0774522,75.5245361 68.3871287,74.7616495 68.3871287,73.7719588 L68.3871287,73.7719588 L68.3871287,68.1925773 L67.3053823,68.1925773 L67.3053823,73.7472165 C67.3053823,74.6049485 67.0508537,75.2028866 66.5417966,75.5410309 C66.109098,75.8214433 65.3624809,75.9616495 64.3019452,75.9616495 C63.1905038,75.9616495 62.4120706,75.7987629 61.9666456,75.4729897 C61.5212206,75.1472165 61.2985081,74.5719588 61.2985081,73.7472165 L61.2985081,73.7472165 L61.2985081,70.7534021 L60.7639981,70.7534021 L60.2167617,71.1863918 L60.2167617,73.7719588 C60.2167617,74.7781443 60.5391646,75.5492784 61.1839703,76.0853608 C61.7863545,76.5884536 62.5923617,76.84 63.6019916,76.84 L63.6019916,76.84 L65.0146252,76.84 Z M52.9117919,76.8276289 C53.2681319,76.8276289 53.6117455,76.7946392 53.9426326,76.7286598 C54.4432054,76.6214433 54.8716619,76.4317526 55.2280019,76.1595876 C55.9321976,75.6235052 56.2885375,74.8276289 56.2970218,73.7719588 L56.2970218,73.7719588 L56.2970218,70.2956701 C56.2970218,69.5369072 56.0382511,68.9554639 55.5207097,68.5513402 C55.0880111,68.2131959 54.5280483,68.0441237 53.8408212,68.0441237 C52.9330026,68.0441237 52.2118384,68.3162887 51.6773284,68.8606186 C51.1767555,69.3802062 50.9264691,70.0729897 50.9264691,70.9389691 C50.9264691,71.796701 51.1640291,72.5018557 51.6391491,73.054433 C52.1736591,73.6812371 52.8990655,73.9946392 53.8153683,73.9946392 C54.2989726,73.9946392 54.7613662,73.9162887 55.202549,73.7595876 C55.1940647,75.2276289 54.3626047,75.9616495 52.7081691,75.9616495 C52.4281876,75.9616495 52.1609327,75.9451546 51.9064041,75.9121649 L51.9064041,75.9121649 L51.9064041,76.3080412 L52.3263762,76.8152577 C52.5130305,76.8235052 52.7081691,76.8276289 52.9117919,76.8276289 Z M53.8917269,73.0296907 C53.3402483,73.0296907 52.8990655,72.8606186 52.5681784,72.5224742 C52.1948698,72.1595876 52.0082155,71.6647423 52.0082155,71.0379381 C52.0082155,70.3781443 52.171538,69.8626804 52.498183,69.4915464 C52.824828,69.1204124 53.2723741,68.9348454 53.8408212,68.9348454 C54.163224,68.9348454 54.430479,69.0049485 54.6425862,69.1451546 C55.0158947,69.4008247 55.202549,69.7843299 55.202549,70.2956701 L55.202549,70.2956701 L55.202549,72.8070103 C54.8122719,72.9554639 54.3753312,73.0296907 53.8917269,73.0296907 Z M48.8011556,74.1925773 L49.348392,73.7595876 L49.348392,65.025567 L48.2666456,65.025567 L48.2666456,74.1925773 L48.8011556,74.1925773 Z M45.3522935,73.883299 C45.6746964,73.883299 45.9504357,73.7637113 46.1795114,73.5245361 C46.4001028,73.3018557 46.5103985,73.0296907 46.5103985,72.7080412 L46.5103985,72.7080412 L46.5103985,65.025567 L45.4286521,65.025567 L45.4286521,72.5348454 C45.4286521,72.6503093 45.3904728,72.7534021 45.3141143,72.8441237 C45.2292714,72.9513402 45.1062493,73.0049485 44.9450478,73.0049485 L44.9450478,73.0049485 L43.137895,73.0049485 L43.137895,73.883299 L45.3522935,73.883299 Z M40.2617222,74.254433 C40.9659179,74.254433 41.5470915,73.9863918 42.0052429,73.4503093 C42.2343186,73.7389691 42.5397529,73.883299 42.9215458,73.883299 L42.9215458,73.883299 L43.2397065,73.883299 L43.2397065,73.0049485 L43.2142536,73.0049485 C43.0869893,72.996701 42.9851779,72.9389691 42.9088193,72.8317526 C42.8494293,72.7492784 42.8197343,72.6503093 42.8197343,72.5348454 L42.8197343,72.5348454 L42.8197343,70.2956701 C42.8197343,69.454433 42.5143,68.8358763 41.9034315,68.44 C41.5046701,68.1843299 40.9998551,68.0564948 40.3889865,68.0564948 C39.540558,68.0729897 38.857573,68.3204124 38.3400316,68.7987629 C37.7631002,69.3430928 37.4746345,70.1142268 37.4746345,71.1121649 C37.4746345,71.8214433 37.6485623,72.4523711 37.996418,73.0049485 L37.996418,73.0049485 L35.4893117,73.0049485 L35.4893117,73.883299 L37.9582387,73.883299 L38.3145787,73.4503093 L38.3400316,73.4503093 C38.8830259,73.9863918 39.5235894,74.254433 40.2617222,74.254433 Z M40.3253544,73.3760825 C39.8247815,73.3760825 39.4090516,73.1616495 39.0781644,72.7327835 C38.7303087,72.2874227 38.5563809,71.7307216 38.5563809,71.0626804 C38.5563809,70.4276289 38.7218244,69.9142268 39.0527116,69.5224742 C39.3835987,69.1307216 39.8205394,68.9348454 40.3635337,68.9348454 C40.7538108,68.9348454 41.0719715,69.0461856 41.3180158,69.268866 C41.5979972,69.5245361 41.7379879,69.8668041 41.7379879,70.2956701 L41.7379879,70.2956701 L41.7379879,72.7204124 C41.2883208,73.1575258 40.8174429,73.3760825 40.3253544,73.3760825 Z M34.0512253,73.883299 C34.3905967,73.883299 34.6875467,73.7389691 34.9420752,73.4503093 L34.9420752,73.4503093 L34.9675281,73.4503093 L35.3365945,73.883299 L35.5911231,73.883299 L35.5911231,73.0049485 L35.1584245,73.0049485 C35.1838774,72.8894845 35.1966038,72.7369072 35.1966038,72.5472165 C35.1966038,71.425567 34.8487481,70.4358763 34.1530367,69.5781443 C33.389451,68.6379381 32.3458839,67.9946392 31.0223353,67.6482474 L31.0223353,67.6482474 L34.2166688,65.8049485 L34.2166688,64.84 L30.0169475,67.2028866 L30.0169475,68.4276289 C30.0169475,68.4853608 30.0424004,68.5142268 30.0933061,68.5142268 C31.5865403,68.7121649 32.6725289,69.2894845 33.3512717,70.2461856 C33.8263917,70.897732 34.0851624,71.6523711 34.1275838,72.5101031 C34.1275838,72.84 33.9621403,73.0049485 33.6312531,73.0049485 L33.6312531,73.0049485 L28.4643233,73.0049485 L28.4643233,73.883299 L34.0512253,73.883299 Z M28.5534083,73.883299 L28.5534083,73.0049485 L28.3879647,73.0049485 C28.2437318,73.0049485 28.1249519,72.9595876 28.0316247,72.868866 C27.9467819,72.7781443 27.9043604,72.6668041 27.9043604,72.5348454 L27.9043604,72.5348454 L27.9043604,65.025567 L26.822614,65.025567 L26.822614,72.7080412 C26.822614,73.0791753 26.9668469,73.3843299 27.2553126,73.6235052 C27.4589354,73.796701 27.6964954,73.883299 27.9679926,73.883299 L27.9679926,73.883299 L28.5534083,73.883299 Z M20.8666456,69.268866 C21.0363313,69.268866 21.1826852,69.2090722 21.3057074,69.0894845 C21.4287295,68.9698969 21.4902406,68.8235052 21.4902406,68.6503093 C21.4902406,68.4853608 21.4287295,68.3430928 21.3057074,68.2235052 C21.1826852,68.1039175 21.0363313,68.0441237 20.8666456,68.0441237 C20.6969599,68.0441237 20.550606,68.1039175 20.4275838,68.2235052 C20.3045617,68.3430928 20.2430506,68.4853608 20.2430506,68.6503093 C20.2430506,68.8235052 20.3045617,68.9698969 20.4275838,69.0894845 C20.550606,69.2090722 20.6969599,69.268866 20.8666456,69.268866 Z M21.6938634,76.84 C22.720462,76.84 23.5349534,76.5802062 24.1373377,76.0606186 C24.7566905,75.5245361 25.0663669,74.7616495 25.0663669,73.7719588 L25.0663669,73.7719588 L25.0663669,68.1925773 L23.9846205,68.1925773 L23.9846205,73.7472165 C23.9846205,74.6049485 23.730092,75.2028866 23.2210348,75.5410309 C22.7883363,75.8214433 22.0417192,75.9616495 20.9811835,75.9616495 C19.8697421,75.9616495 19.0913089,75.7987629 18.6458839,75.4729897 C18.2004589,75.1472165 17.9777464,74.5719588 17.9777464,73.7472165 L17.9777464,73.7472165 L17.9777464,70.7534021 L17.4432364,70.7534021 L16.896,71.1863918 L16.896,73.7719588 C16.896,74.7781443 17.2184028,75.5492784 17.8632085,76.0853608 C18.4655928,76.5884536 19.2715999,76.84 20.2812299,76.84 L20.2812299,76.84 L21.6938634,76.84 Z" id="تخطىحدودالزمانوالمكان" fill-opacity="0.581594187" fill="#1E2D60" fill-rule="nonzero"></path>
                <path d="M147.889691,55.0967568 C150.014822,55.0967568 151.843424,54.3287387 153.375495,52.7927027 C155.055832,51.2071171 155.896,49.2499099 155.896,46.9210811 L155.896,46.9210811 L155.896,37.8535135 C155.896,32.9481081 154.339218,28.8354955 151.225653,25.5156757 C147.716715,21.849009 143.120501,20.0156757 137.437009,20.0156757 C135.213035,20.0156757 133.260879,20.1643243 131.580543,20.4616216 L131.580543,20.4616216 L131.580543,27.6710811 C132.420711,27.4728829 133.680963,27.3737838 135.3613,27.3737838 C139.018503,27.5224324 141.810826,28.562973 143.738271,30.4954054 C145.813981,32.5764865 146.851836,35.3264865 146.851836,38.7454054 L146.851836,38.7454054 L146.851836,45.6575676 C146.851836,46.8963063 146.234065,47.5156757 144.998524,47.5156757 L144.998524,47.5156757 L124.093161,47.5156757 L124.093161,55.0967568 L147.889691,55.0967568 Z M108.970132,55.0967568 C111.342372,55.0967568 113.282172,54.2544144 114.789533,52.5697297 C116.296894,50.885045 117.050574,48.7048649 117.050574,46.0291892 C117.050574,40.2814414 115.320816,34.9796396 111.8613,30.1237838 C108.00641,24.821982 102.891268,21.0066667 96.5158738,18.6778378 L96.5158738,18.6778378 L112.009565,9.23864865 L112.009565,0.84 L85.69253,16.0021622 L85.69253,24.4751351 C85.69253,24.8715315 85.8655058,25.0697297 86.2114574,25.0697297 C93.278755,25.812973 98.8386919,28.5877477 102.891268,33.3940541 C105.905989,36.8625225 107.611037,40.9255856 108.00641,45.5832432 C108.00641,46.8715315 107.363928,47.5156757 106.078965,47.5156757 L106.078965,47.5156757 L76.6483659,47.5156757 L76.6483659,55.0967568 L108.970132,55.0967568 Z M77.2414259,55.0967568 L77.2414259,47.5156757 L63.5269148,47.5156757 L63.5269148,55.0967568 L77.2414259,55.0967568 Z M64.0458423,55.0967568 L64.0458423,47.5156757 L50.3313312,47.5156757 L50.3313312,55.0967568 L64.0458423,55.0967568 Z M30.6120883,55.84 C34.0716046,55.84 37.2098801,54.6755856 40.0269148,52.3467568 C41.8555163,54.1800901 43.9065152,55.0967568 46.1799117,55.0967568 L46.1799117,55.0967568 L50.8502587,55.0967568 L50.8502587,47.5156757 L48.7745489,47.5156757 C48.2803323,47.5156757 47.884959,47.3422523 47.588429,46.9954054 C47.2424774,46.6981081 47.0695016,46.2521622 47.0695016,45.6575676 L47.0695016,45.6575676 L47.0695016,18.9008108 L42.6215521,18.9008108 L39.4338549,21.3535135 C36.8639285,20.2634234 34.2940021,19.7183784 31.7240757,19.7183784 C27.1278612,19.7183784 23.2482608,21.3287387 20.0852744,24.5494595 C16.6257581,28.117027 14.896,32.6012613 14.896,38.0021622 C14.896,43.8985586 16.7740231,48.6057658 20.5300694,52.1237838 C23.3471041,54.6012613 26.7077771,55.84 30.6120883,55.84 Z M32.4654006,48.4075676 C29.8460526,48.4075676 27.7579874,47.4661261 26.201205,45.5832432 C24.6444227,43.7003604 23.8660315,41.1981081 23.8660315,38.0764865 C23.8660315,34.9548649 24.7309106,32.4154505 26.4606688,30.4582432 C28.1904269,28.501036 30.3896909,27.5224324 33.0584606,27.5224324 C34.6399537,27.5224324 36.2955794,27.8445045 38.0253375,28.4886486 L38.0253375,28.4886486 L38.0253375,47.2183784 C36.0978927,48.0111712 34.2445804,48.4075676 32.4654006,48.4075676 Z" id="دكــه" fill="#1E2D60" fill-rule="nonzero"></path>
                <polygon id="Rectangle" fill="#37CAD6" transform="translate(131.500000, 9.000000) rotate(-10.000000) translate(-131.500000, -9.000000) " points="124.404959 8 140 8 138.595041 10 123 10"></polygon>
                <g id="Group" transform="translate(5.896000, 37.340000) rotate(90.000000) translate(-5.896000, -37.340000) translate(-5.104000, 31.840000)" fill="#37CAD6">
                    <polygon id="Rectangle" transform="translate(16.133333, 5.753846) rotate(-45.000000) translate(-16.133333, -5.753846) " points="12.4666667 2.08717949 19.7294872 2.15769231 19.8 9.42051282 12.5371795 9.35"></polygon>
                    <polygon id="Rectangle" transform="translate(5.866667, 5.753846) rotate(-45.000000) translate(-5.866667, -5.753846) " points="2.2 2.08717949 9.46282051 2.15769231 9.53333333 9.42051282 2.27051282 9.35"></polygon>
                </g>
            </g>
        </g>
    </g>
</svg>