<?xml version="1.0" encoding="UTF-8"?>
<svg width="131px" height="65px" viewBox="0 0 131 65" version="1.1" xmlns="http://www.w3.org/2000/svg" xmlns:xlink="http://www.w3.org/1999/xlink">
    <title>logo_white</title>
    <g id="Welcome" stroke="none" stroke-width="1" fill="none" fill-rule="evenodd">
        <g id="Home" transform="translate(-233.000000, -4227.000000)" fill="#FFFFFF">
            <g id="footer" transform="translate(0.000000, 3192.000000)">
                <g id="logo_white" transform="translate(233.104000, 1035.160000)">
                    <path d="M52.1639739,28.84 C53.4275904,28.84 54.5931678,28.0699107 55.6607059,26.5297321 C56.7936035,24.9449107 57.3709455,24.1525 57.392732,24.1525 C57.5016645,24.1525 57.6868497,24.2194643 57.9482876,24.3533929 C58.2097255,24.4873214 58.5038431,24.6324107 58.8306405,24.7886607 C59.1574379,24.9449107 59.4678954,25.09 59.7620131,25.2239286 C60.0561307,25.3578571 60.268549,25.4248214 60.399268,25.4248214 C60.8567843,25.4248214 61.2979608,25.2295089 61.7227974,24.8388839 C62.147634,24.4482589 62.5180044,23.918125 62.8339085,23.2484821 C63.1498126,22.5788393 63.4058039,21.8143304 63.6018824,20.9549554 C63.7979608,20.0955804 63.896,19.2194643 63.896,18.3266071 C63.896,15.6926786 63.7543878,14.1971429 63.4711634,13.84 L63.4711634,13.84 L61.020183,15.2797321 C61.4123399,15.3690179 61.6084183,16.4516071 61.6084183,18.5275 C61.6084183,20.8489286 61.0855425,22.0096429 60.0397908,22.0096429 C59.691207,22.0096429 59.3480697,21.8645536 59.0103791,21.574375 C58.6726885,21.2841964 58.3676776,20.9103125 58.0953464,20.4527232 C57.8230153,19.9951339 57.6051503,19.4817411 57.4417516,18.9125446 C57.2783529,18.3433482 57.1966536,17.7797321 57.1966536,17.2216964 C57.1966536,17.1100893 57.2075468,17.0096429 57.2293333,16.9203571 L57.2293333,16.9203571 L55.1378301,18.0922321 C55.312122,18.3600893 55.399268,18.7060714 55.399268,19.1301786 C55.399268,23.1703571 54.516915,25.1904464 52.7522092,25.1904464 C51.5321656,25.1904464 50.9221438,23.6949107 50.9221438,20.7038393 C50.9221438,20.2127679 50.9983965,19.9114286 51.150902,19.7998214 L51.150902,19.7998214 L48.9613595,21.0051786 C48.939573,21.1614286 48.9232331,21.3344196 48.9123399,21.5241518 C48.9014466,21.7138839 48.896,21.9091964 48.896,22.1100893 C48.896,26.5966964 49.9853246,28.84 52.1639739,28.84 Z" id="ّ" fill-rule="nonzero"></path>
                    <path d="M126.085131,55.3863918 C126.23339,55.3863918 126.356938,55.3365636 126.455777,55.2369072 C126.554616,55.1372509 126.604035,55.0152577 126.604035,54.8709278 C126.604035,54.7334708 126.554616,54.6149141 126.455777,54.5152577 C126.356938,54.4156014 126.23339,54.3657732 126.085131,54.3657732 C125.943933,54.3657732 125.82215,54.4156014 125.719781,54.5152577 C125.617412,54.6149141 125.566228,54.7334708 125.566228,54.8709278 C125.566228,55.0152577 125.617412,55.1372509 125.719781,55.2369072 C125.82215,55.3365636 125.943933,55.3863918 126.085131,55.3863918 Z M127.377096,55.3863918 C127.518294,55.3863918 127.640078,55.3365636 127.742447,55.2369072 C127.844816,55.1372509 127.896,55.0152577 127.896,54.8709278 C127.896,54.7334708 127.844816,54.6149141 127.742447,54.5152577 C127.640078,54.4156014 127.518294,54.3657732 127.377096,54.3657732 C127.228838,54.3657732 127.103524,54.4156014 127.001156,54.5152577 C126.898787,54.6149141 126.847602,54.7334708 126.847602,54.8709278 C126.847602,55.0152577 126.898787,55.1372509 127.001156,55.2369072 C127.103524,55.3365636 127.228838,55.3863918 127.377096,55.3863918 Z M126.837013,61.3760825 C127.119409,61.3760825 127.355916,61.2695533 127.546534,61.0564948 C127.715972,60.8709278 127.800691,60.6509966 127.800691,60.396701 L127.800691,60.396701 L127.800691,56.6338144 L126.900552,56.6338144 L126.900552,60.2523711 C126.900552,60.3623368 126.865252,60.4516838 126.794653,60.5204124 C126.716994,60.6028866 126.618155,60.6441237 126.498137,60.6441237 L126.498137,60.6441237 L124.994374,60.6441237 L124.994374,61.3760825 L126.837013,61.3760825 Z M122.251597,55.3863918 C122.399855,55.3863918 122.523404,55.3365636 122.622242,55.2369072 C122.721081,55.1372509 122.770501,55.0152577 122.770501,54.8709278 C122.770501,54.7334708 122.721081,54.6149141 122.622242,54.5152577 C122.523404,54.4156014 122.399855,54.3657732 122.251597,54.3657732 C122.110399,54.3657732 121.988615,54.4156014 121.886246,54.5152577 C121.783877,54.6149141 121.732693,54.7334708 121.732693,54.8709278 C121.732693,55.0152577 121.783877,55.1372509 121.886246,55.2369072 C121.988615,55.3365636 122.110399,55.3863918 122.251597,55.3863918 Z M123.776539,61.3760825 C124.073055,61.3760825 124.320152,61.2558076 124.51783,61.0152577 L124.51783,61.0152577 L124.5496,61.0152577 L124.846116,61.3760825 L125.068503,61.3760825 L125.068503,60.6441237 L124.697858,60.6441237 C124.719038,60.5616495 124.729627,60.4791753 124.729627,60.396701 L124.729627,60.396701 L124.729627,59.0874227 C124.729627,58.3520275 124.53195,57.7575258 124.136595,57.3039175 C123.6777,56.7747079 123.010538,56.5101031 122.135108,56.5101031 C121.570315,56.5101031 120.963162,56.6097595 120.31365,56.8090722 L120.31365,56.8090722 L120.31365,57.4997938 C121.076121,57.3485911 121.640914,57.2729897 122.00803,57.2729897 C122.615183,57.2729897 123.077607,57.444811 123.395303,57.7884536 C123.68476,58.097732 123.829488,58.5204124 123.829488,59.0564948 L123.829488,59.0564948 L123.829488,60.2523711 C123.829488,60.5135395 123.69535,60.6441237 123.427073,60.6441237 L123.427073,60.6441237 L118.905196,60.6441237 L118.905196,61.3760825 L123.776539,61.3760825 Z M117.687361,61.3760825 C117.983877,61.3760825 118.230974,61.2558076 118.428652,61.0152577 L118.428652,61.0152577 L118.460422,61.0152577 L118.767528,61.3760825 L118.989915,61.3760825 L118.989915,60.6441237 L118.61927,60.6441237 C118.64045,60.5685223 118.651039,60.4860481 118.651039,60.396701 L118.651039,60.396701 L118.651039,59.025567 C118.651039,58.3107904 118.418062,57.7231615 117.952108,57.2626804 C117.436734,56.7609622 116.755452,56.5101031 115.908262,56.5101031 C114.333901,56.5101031 113.066646,57.307354 112.106497,58.9018557 L112.106497,58.9018557 L112.106497,53.9946392 L111.216948,53.9946392 L111.216948,60.6441237 L109.31077,60.6441237 L109.31077,61.3760825 L117.687361,61.3760825 Z M117.348485,60.6441237 L112.106497,60.6441237 C112.607751,59.3107904 113.267853,58.3623368 114.086804,57.7987629 C114.616297,57.4413746 115.181091,57.2626804 115.781183,57.2626804 C116.310677,57.2626804 116.744862,57.3829553 117.083738,57.6235052 C117.521453,57.9259107 117.74031,58.3623368 117.74031,58.9327835 L117.74031,58.9327835 L117.74031,60.2523711 C117.74031,60.5135395 117.609702,60.6441237 117.348485,60.6441237 L117.348485,60.6441237 Z M106.991588,63.84 C107.782298,63.84 108.424751,63.6509966 108.918945,63.2729897 C109.483738,62.84 109.776725,62.2076976 109.797904,61.3760825 L109.797904,61.3760825 L110.083831,61.3760825 L110.083831,60.6441237 L107.722289,60.6441237 L107.722289,60.9327835 L108.092935,61.3760825 L108.897765,61.3760825 C108.876585,62.0564948 108.643608,62.5272852 108.198833,62.7884536 C107.852897,63.001512 107.242215,63.1080412 106.366785,63.1080412 C105.456056,63.1080412 104.817133,62.9705842 104.450018,62.6956701 C104.082902,62.420756 103.899344,61.9430928 103.899344,61.2626804 L103.899344,61.2626804 L103.899344,59.582268 L103.454569,59.582268 L102.999205,59.9430928 L102.999205,61.283299 C102.999205,62.0805498 103.242772,62.702543 103.729906,63.1492784 C104.23822,63.6097595 104.933622,63.84 105.816111,63.84 L105.816111,63.84 L106.991588,63.84 Z M98.7738449,61.3760825 C99.0774213,61.3760825 99.3209884,61.2558076 99.5045462,61.0152577 C99.6528045,60.8365636 99.7269336,60.630378 99.7269336,60.396701 L99.7269336,60.396701 L99.7269336,59.0874227 C99.7269336,58.3520275 99.5292559,57.7575258 99.1339006,57.3039175 C98.675006,56.7747079 98.0078439,56.5101031 97.1324143,56.5101031 C96.567621,56.5101031 95.9604682,56.6097595 95.3109559,56.8090722 L95.3109559,56.8090722 L95.3109559,57.4997938 C96.0734268,57.3485911 96.6382202,57.2729897 97.0053358,57.2729897 C97.6124886,57.2729897 98.0749131,57.444811 98.3926094,57.7884536 C98.682066,58.097732 98.8267942,58.5204124 98.8267942,59.0564948 L98.8267942,59.0564948 L98.8267942,60.2523711 C98.8267942,60.5135395 98.6926558,60.6441237 98.424379,60.6441237 L98.424379,60.6441237 L93.9025026,60.6441237 L93.9025026,61.3760825 L98.7738449,61.3760825 Z M92.7587961,61.3760825 C92.9564738,61.3760825 93.1400316,61.3176632 93.3094696,61.2008247 C93.3800687,61.1458419 93.443608,61.0839863 93.5000873,61.0152577 L93.5000873,61.0152577 L93.5318569,61.0152577 L93.8283734,61.3760825 L93.9872216,61.3760825 L93.9872216,60.6441237 L93.6907051,60.6441237 C93.7048249,60.5685223 93.7118848,60.4860481 93.7118848,60.396701 L93.7118848,60.396701 L93.7118848,58.8193814 C93.7118848,58.1664605 93.4965574,57.6269416 93.0659025,57.2008247 C92.5858281,56.7403436 91.9539656,56.5101031 91.1703149,56.5101031 C90.8808583,56.5101031 90.6090516,56.5307216 90.3548946,56.5719588 L90.3548946,56.5719588 L90.3548946,57.2626804 C90.489033,57.235189 90.654941,57.2214433 90.8526187,57.2214433 C91.5303706,57.2283162 92.0316247,57.396701 92.3563809,57.7265979 C92.6599573,58.049622 92.8117455,58.4551203 92.8117455,58.9430928 L92.8117455,58.9430928 L92.8117455,60.2523711 C92.8117455,60.5135395 92.681137,60.6441237 92.4199201,60.6441237 L92.4199201,60.6441237 L89.2853172,60.6441237 L89.2853172,61.3760825 L92.7587961,61.3760825 Z M85.4729624,63.8296907 C85.7694789,63.8296907 86.0554055,63.8021993 86.3307422,63.7472165 C86.7472773,63.6578694 87.1038031,63.4997938 87.4003196,63.2729897 C87.9862926,62.8262543 88.2828091,62.1630241 88.289869,61.283299 L88.289869,61.283299 L88.289869,58.3863918 C88.289869,57.7540893 88.0745416,57.2695533 87.6438867,56.9327835 C87.2838309,56.6509966 86.8178765,56.5101031 86.2460232,56.5101031 C85.4906122,56.5101031 84.8905193,56.7369072 84.4457445,57.1905155 C84.0292095,57.6235052 83.8209419,58.2008247 83.8209419,58.9224742 C83.8209419,59.6372509 84.0186196,60.2248797 84.4139749,60.6853608 C84.8587497,61.2076976 85.4623725,61.468866 86.2248435,61.468866 C86.6272587,61.468866 87.0120242,61.4035739 87.3791398,61.2729897 C87.3720799,62.4963574 86.6802081,63.1080412 85.3035244,63.1080412 C85.0705471,63.1080412 84.8481598,63.0942955 84.6363623,63.0668041 L84.6363623,63.0668041 L84.6363623,63.396701 L84.9858281,63.8193814 C85.1411463,63.8262543 85.3035244,63.8296907 85.4729624,63.8296907 Z M86.2883827,60.6647423 C85.8294882,60.6647423 85.4623725,60.5238488 85.1870358,60.2420619 C84.8763994,59.9396564 84.7210813,59.5272852 84.7210813,59.0049485 C84.7210813,58.4551203 84.8569847,58.025567 85.1287915,57.7162887 C85.4005982,57.4070103 85.7730088,57.2523711 86.2460232,57.2523711 C86.5143,57.2523711 86.7366874,57.3107904 86.9131853,57.4276289 C87.2238216,57.6406873 87.3791398,57.9602749 87.3791398,58.3863918 L87.3791398,58.3863918 L87.3791398,60.4791753 C87.0543837,60.6028866 86.690798,60.6647423 86.2883827,60.6647423 Z M81.6606075,61.3760825 C81.9288843,61.3760825 82.1548017,61.2764261 82.3383595,61.0771134 C82.5148574,60.8915464 82.6031064,60.6647423 82.6031064,60.396701 L82.6031064,60.396701 L82.6031064,58.8193814 C82.6031064,58.1664605 82.3877789,57.6269416 81.957124,57.2008247 C81.4770497,56.7403436 80.8451872,56.5101031 80.0615365,56.5101031 C79.7720799,56.5101031 79.5002731,56.5307216 79.2461161,56.5719588 L79.2461161,56.5719588 L79.2461161,57.2626804 C79.3802545,57.235189 79.5461626,57.2214433 79.7438402,57.2214433 C80.4215922,57.2283162 80.9228463,57.396701 81.2476024,57.7265979 C81.5511788,58.049622 81.702967,58.4551203 81.702967,58.9430928 L81.702967,58.9430928 L81.702967,60.2523711 C81.702967,60.5135395 81.5723586,60.6441237 81.3111417,60.6441237 L81.3111417,60.6441237 L78.1765388,60.6441237 L78.1765388,61.3760825 L81.6606075,61.3760825 Z M74.6289308,61.6338144 L75.0842954,61.2729897 L75.0842954,53.9946392 L74.1841561,53.9946392 L74.1841561,61.6338144 L74.6289308,61.6338144 Z M71.7590748,61.3760825 C72.0273516,61.3760825 72.2567989,61.2764261 72.4474166,61.0771134 C72.6309745,60.8915464 72.7227534,60.6647423 72.7227534,60.396701 L72.7227534,60.396701 L72.7227534,53.9946392 L71.822614,53.9946392 L71.822614,60.2523711 C71.822614,60.3485911 71.7908444,60.4345017 71.7273052,60.5101031 C71.656706,60.5994502 71.5543372,60.6441237 71.4201988,60.6441237 L71.4201988,60.6441237 L69.9164366,60.6441237 L69.9164366,61.3760825 L71.7590748,61.3760825 Z M69.0057074,55.3863918 C69.1469057,55.3863918 69.2686893,55.3365636 69.3710581,55.2369072 C69.4734268,55.1372509 69.5246112,55.0152577 69.5246112,54.8709278 C69.5246112,54.7334708 69.4734268,54.6149141 69.3710581,54.5152577 C69.2686893,54.4156014 69.1469057,54.3657732 69.0057074,54.3657732 C68.8645091,54.3657732 68.7427255,54.4156014 68.6403567,54.5152577 C68.5379879,54.6149141 68.4868035,54.7334708 68.4868035,54.8709278 C68.4868035,55.0152577 68.5379879,55.1372509 68.6403567,55.2369072 C68.7427255,55.3365636 68.8645091,55.3863918 69.0057074,55.3863918 Z M66.6441654,63.8296907 C66.8983223,63.8296907 67.1383595,63.8090722 67.3642768,63.7678351 C67.9643697,63.6578694 68.4373841,63.4310653 68.78332,63.0874227 C69.206915,62.6613058 69.4293024,62.0908591 69.4504821,61.3760825 L69.4504821,61.3760825 L69.9905657,61.3760825 L69.9905657,60.6441237 L69.4504821,60.6441237 L69.4504821,56.6338144 L68.5503428,56.6338144 L68.5503428,61.2523711 C68.5503428,62.4894845 67.858471,63.1080412 66.4747274,63.1080412 C66.2346902,63.1080412 66.0123028,63.0942955 65.8075653,63.0668041 L65.8075653,63.0668041 L65.8075653,63.396701 L66.1570311,63.8193814 C66.3123493,63.8262543 66.4747274,63.8296907 66.6441654,63.8296907 Z M63.636641,61.6853608 C64.2861533,61.6853608 64.8227069,61.444811 65.2463019,60.9637113 C65.6981366,60.4482474 65.9240539,59.815945 65.9240539,59.0668041 C65.9240539,58.2626804 65.6981366,57.6372509 65.2463019,57.1905155 C64.7944673,56.7437801 64.2332039,56.5204124 63.5625118,56.5204124 C63.0118384,56.5204124 62.5705936,56.6269416 62.2387775,56.84 C61.7304635,57.1698969 61.4763065,57.6853608 61.4763065,58.3863918 L61.4763065,58.3863918 L61.4763065,60.2523711 C61.4763065,60.3623368 61.437477,60.4551203 61.3598179,60.5307216 C61.2821588,60.606323 61.18685,60.6441237 61.0738913,60.6441237 L61.0738913,60.6441237 L59.5701291,60.6441237 L59.5701291,61.3760825 L61.3915876,61.3760825 C61.7092838,61.3760825 61.9634408,61.2558076 62.1540585,61.0152577 C62.535294,61.4619931 63.0294882,61.6853608 63.636641,61.6853608 Z M63.5942815,60.9534021 C63.1495067,60.9534021 62.7435615,60.7712715 62.3764459,60.4070103 L62.3764459,60.4070103 L62.3764459,58.3863918 C62.3764459,58.0290034 62.4929345,57.7437801 62.7259118,57.5307216 C62.9306493,57.3451546 63.1953962,57.2523711 63.5201523,57.2523711 C63.9508072,57.2523711 64.2967431,57.396701 64.5579601,57.6853608 C64.8685964,58.0358763 65.0239145,58.5135395 65.0239145,59.1183505 C65.0239145,59.6613058 64.8915411,60.1028866 64.6267942,60.4430928 C64.3620474,60.783299 64.0178765,60.9534021 63.5942815,60.9534021 Z M59.6442582,61.3760825 L59.6442582,60.6441237 L59.5065899,60.6441237 C59.3865713,60.6441237 59.2877325,60.606323 59.2100734,60.5307216 C59.1394742,60.4551203 59.1041746,60.3623368 59.1041746,60.2523711 L59.1041746,60.2523711 L59.1041746,53.9946392 L58.2040353,53.9946392 L58.2040353,60.396701 C58.2040353,60.7059794 58.3240539,60.9602749 58.564091,61.1595876 C58.733529,61.3039175 58.9312067,61.3760825 59.157124,61.3760825 L59.157124,61.3760825 L59.6442582,61.3760825 Z M53.247974,57.5307216 C53.3891723,57.5307216 53.5109559,57.4808935 53.6133247,57.3812371 C53.7156935,57.2815808 53.7668778,57.1595876 53.7668778,57.0152577 C53.7668778,56.8778007 53.7156935,56.759244 53.6133247,56.6595876 C53.5109559,56.5599313 53.3891723,56.5101031 53.247974,56.5101031 C53.1067757,56.5101031 52.9849921,56.5599313 52.8826233,56.6595876 C52.7802545,56.759244 52.7290701,56.8778007 52.7290701,57.0152577 C52.7290701,57.1595876 52.7802545,57.2815808 52.8826233,57.3812371 C52.9849921,57.4808935 53.1067757,57.5307216 53.247974,57.5307216 Z M53.9363158,63.84 C54.7905657,63.84 55.4683177,63.6235052 55.9695718,63.1905155 C56.4849457,62.7437801 56.7426326,62.1080412 56.7426326,61.283299 L56.7426326,61.283299 L56.7426326,56.6338144 L55.8424933,56.6338144 L55.8424933,61.2626804 C55.8424933,61.977457 55.6306958,62.4757388 55.2071008,62.7575258 C54.8470451,62.9912027 54.2257724,63.1080412 53.3432829,63.1080412 C52.4184338,63.1080412 51.7706865,62.9723024 51.4000409,62.7008247 C51.0293953,62.4293471 50.8440725,61.9499656 50.8440725,61.2626804 L50.8440725,61.2626804 L50.8440725,58.7678351 L50.3992977,58.7678351 L49.9439331,59.1286598 L49.9439331,61.283299 C49.9439331,62.1217869 50.2122099,62.7643986 50.7487636,63.211134 C51.2500176,63.630378 51.9207097,63.84 52.7608398,63.84 L52.7608398,63.84 L53.9363158,63.84 Z M43.8653451,63.8296907 C44.1618616,63.8296907 44.4477882,63.8021993 44.7231249,63.7472165 C45.13966,63.6578694 45.4961858,63.4997938 45.7927023,63.2729897 C46.3786753,62.8262543 46.6751918,62.1630241 46.6822517,61.283299 L46.6822517,61.283299 L46.6822517,58.3863918 C46.6822517,57.7540893 46.4669243,57.2695533 46.0362694,56.9327835 C45.6762137,56.6509966 45.2102592,56.5101031 44.6384059,56.5101031 C43.8829949,56.5101031 43.282902,56.7369072 42.8381273,57.1905155 C42.4215922,57.6235052 42.2133247,58.2008247 42.2133247,58.9224742 C42.2133247,59.6372509 42.4110023,60.2248797 42.8063576,60.6853608 C43.2511324,61.2076976 43.8547552,61.468866 44.6172262,61.468866 C45.0196414,61.468866 45.4044069,61.4035739 45.7715225,61.2729897 C45.7644626,62.4963574 45.0725908,63.1080412 43.6959071,63.1080412 C43.4629299,63.1080412 43.2405425,63.0942955 43.028745,63.0668041 L43.028745,63.0668041 L43.028745,63.396701 L43.3782109,63.8193814 C43.533529,63.8262543 43.6959071,63.8296907 43.8653451,63.8296907 Z M44.6807654,60.6647423 C44.2218709,60.6647423 43.8547552,60.5238488 43.5794185,60.2420619 C43.2687822,59.9396564 43.113464,59.5272852 43.113464,59.0049485 C43.113464,58.4551203 43.2493674,58.025567 43.5211742,57.7162887 C43.792981,57.4070103 44.1653915,57.2523711 44.6384059,57.2523711 C44.9066828,57.2523711 45.1290701,57.3107904 45.305568,57.4276289 C45.6162044,57.6406873 45.7715225,57.9602749 45.7715225,58.3863918 L45.7715225,58.3863918 L45.7715225,60.4791753 C45.4467664,60.6028866 45.0831807,60.6647423 44.6807654,60.6647423 Z M40.4448156,61.6338144 L40.9001802,61.2729897 L40.9001802,53.9946392 L40.0000409,53.9946392 L40.0000409,61.6338144 L40.4448156,61.6338144 Z M37.5749596,61.3760825 C37.8432364,61.3760825 38.0726837,61.2764261 38.2633014,61.0771134 C38.4468593,60.8915464 38.5386382,60.6647423 38.5386382,60.396701 L38.5386382,60.396701 L38.5386382,53.9946392 L37.6384988,53.9946392 L37.6384988,60.2523711 C37.6384988,60.3485911 37.6067292,60.4345017 37.54319,60.5101031 C37.4725908,60.5994502 37.370222,60.6441237 37.2360836,60.6441237 L37.2360836,60.6441237 L35.7323214,60.6441237 L35.7323214,61.3760825 L37.5749596,61.3760825 Z M33.3390098,61.6853608 C33.9249828,61.6853608 34.4085871,61.4619931 34.7898226,61.0152577 C34.9804403,61.2558076 35.2345973,61.3760825 35.5522935,61.3760825 L35.5522935,61.3760825 L35.8170404,61.3760825 L35.8170404,60.6441237 L35.7958607,60.6441237 C35.6899619,60.6372509 35.6052429,60.5891409 35.5417037,60.4997938 C35.4922843,60.4310653 35.4675745,60.3485911 35.4675745,60.2523711 L35.4675745,60.2523711 L35.4675745,58.3863918 C35.4675745,57.6853608 35.2134176,57.1698969 34.7051036,56.84 C34.3732875,56.6269416 33.9532225,56.5204124 33.4449085,56.5204124 C32.7389169,56.5341581 32.1705936,56.7403436 31.7399387,57.1389691 C31.2598644,57.5925773 31.0198272,58.235189 31.0198272,59.0668041 C31.0198272,59.6578694 31.1645555,60.1836426 31.4540121,60.6441237 L31.4540121,60.6441237 L29.3678068,60.6441237 L29.3678068,61.3760825 L31.4222425,61.3760825 L31.7187589,61.0152577 L31.7399387,61.0152577 C32.1917733,61.4619931 32.724797,61.6853608 33.3390098,61.6853608 Z M33.3919591,60.9534021 C32.9754241,60.9534021 32.6294882,60.7747079 32.3541514,60.4173196 C32.0646948,60.0461856 31.9199666,59.582268 31.9199666,59.025567 C31.9199666,58.4963574 32.0576349,58.0685223 32.3329717,57.7420619 C32.6083084,57.4156014 32.9718941,57.2523711 33.4237288,57.2523711 C33.7484849,57.2523711 34.0132318,57.3451546 34.2179693,57.5307216 C34.4509466,57.7437801 34.5674352,58.0290034 34.5674352,58.3863918 L34.5674352,58.3863918 L34.5674352,60.4070103 C34.1932596,60.7712715 33.8014343,60.9534021 33.3919591,60.9534021 Z M28.171151,61.3760825 C28.4535476,61.3760825 28.7006447,61.2558076 28.9124422,61.0152577 L28.9124422,61.0152577 L28.9336219,61.0152577 L29.2407283,61.3760825 L29.4525258,61.3760825 L29.4525258,60.6441237 L29.09247,60.6441237 C29.1136498,60.5479038 29.1242397,60.420756 29.1242397,60.2626804 C29.1242397,59.3279725 28.8347831,58.5032302 28.2558699,57.7884536 C27.6204775,57.0049485 26.7521078,56.468866 25.6507608,56.1802062 L25.6507608,56.1802062 L28.3088193,54.6441237 L28.3088193,53.84 L24.8141607,55.8090722 L24.8141607,56.8296907 C24.8141607,56.8778007 24.8353405,56.9018557 24.8777,56.9018557 C26.1202452,57.0668041 27.0239145,57.5479038 27.5887078,58.3451546 C27.9840632,58.88811 28.1993906,59.5169759 28.2346902,60.2317526 C28.2346902,60.5066667 28.0970218,60.6441237 27.8216851,60.6441237 L27.8216851,60.6441237 L23.522196,60.6441237 L23.522196,61.3760825 L28.171151,61.3760825 Z M23.5963251,61.3760825 L23.5963251,60.6441237 L23.4586568,60.6441237 C23.3386382,60.6441237 23.2397993,60.606323 23.1621403,60.5307216 C23.0915411,60.4551203 23.0562415,60.3623368 23.0562415,60.2523711 L23.0562415,60.2523711 L23.0562415,53.9946392 L22.1561022,53.9946392 L22.1561022,60.396701 C22.1561022,60.7059794 22.2761208,60.9602749 22.5161579,61.1595876 C22.6855959,61.3039175 22.8832736,61.3760825 23.1091909,61.3760825 L23.1091909,61.3760825 L23.5963251,61.3760825 Z M17.2000409,57.5307216 C17.3412392,57.5307216 17.4630228,57.4808935 17.5653915,57.3812371 C17.6677603,57.2815808 17.7189447,57.1595876 17.7189447,57.0152577 C17.7189447,56.8778007 17.6677603,56.759244 17.5653915,56.6595876 C17.4630228,56.5599313 17.3412392,56.5101031 17.2000409,56.5101031 C17.0588425,56.5101031 16.937059,56.5599313 16.8346902,56.6595876 C16.7323214,56.759244 16.681137,56.8778007 16.681137,57.0152577 C16.681137,57.1595876 16.7323214,57.2815808 16.8346902,57.3812371 C16.937059,57.4808935 17.0588425,57.5307216 17.2000409,57.5307216 Z M17.8883827,63.84 C18.7426326,63.84 19.4203846,63.6235052 19.9216386,63.1905155 C20.4370125,62.7437801 20.6946995,62.1080412 20.6946995,61.283299 L20.6946995,61.283299 L20.6946995,56.6338144 L19.7945601,56.6338144 L19.7945601,61.2626804 C19.7945601,61.977457 19.5827627,62.4757388 19.1591677,62.7575258 C18.7991119,62.9912027 18.1778393,63.1080412 17.2953497,63.1080412 C16.3705007,63.1080412 15.7227534,62.9723024 15.3521078,62.7008247 C14.9814621,62.4293471 14.7961393,61.9499656 14.7961393,61.2626804 L14.7961393,61.2626804 L14.7961393,58.7678351 L14.3513646,58.7678351 L13.896,59.1286598 L13.896,61.283299 C13.896,62.1217869 14.1642768,62.7643986 14.7008305,63.211134 C15.2020845,63.630378 15.8727766,63.84 16.7129066,63.84 L16.7129066,63.84 L17.8883827,63.84 Z" id="تخطىحدودالزمانوالمكان" fill-opacity="0.581594187" fill-rule="nonzero"></path>
                    <path d="M123.195685,46.2183784 C124.974163,46.2183784 126.504482,45.576036 127.786641,44.2913514 C129.19288,42.9652252 129.896,41.3282883 129.896,39.3805405 L129.896,39.3805405 L129.896,31.7967568 C129.896,27.6940541 128.593161,24.2544144 125.987483,21.4778378 C123.050925,18.4111712 119.204447,16.8778378 114.44805,16.8778378 C112.586852,16.8778378 110.953133,17.0021622 109.546894,17.2508108 L109.546894,17.2508108 L109.546894,23.2805405 C110.250013,23.1147748 111.304693,23.0318919 112.710932,23.0318919 C115.77157,23.1562162 118.108408,24.0264865 119.721447,25.6427027 C121.458566,27.3832432 122.327125,29.6832432 122.327125,32.5427027 L122.327125,32.5427027 L122.327125,38.3237838 C122.327125,39.3598198 121.810125,39.8778378 120.776126,39.8778378 L120.776126,39.8778378 L103.280858,39.8778378 L103.280858,46.2183784 L123.195685,46.2183784 Z M90.6247066,46.2183784 C92.6099853,46.2183784 94.2333642,45.5138739 95.4948433,44.1048649 C96.7563225,42.6958559 97.387062,40.8724324 97.387062,38.6345946 C97.387062,33.8273874 95.939463,29.3931532 93.044265,25.3318919 C89.8181872,20.8976577 85.5374301,17.7066667 80.2019937,15.7589189 L80.2019937,15.7589189 L93.1683449,7.86432432 L93.1683449,0.84 L71.1441598,13.5210811 L71.1441598,20.6075676 C71.1441598,20.9390991 71.2889197,21.1048649 71.5784395,21.1048649 C77.4929155,21.7264865 82.1459124,24.0472072 85.5374301,28.067027 C88.0603884,30.9679279 89.4873074,34.3661261 89.8181872,38.2616216 C89.8181872,39.3390991 89.2805075,39.8778378 88.2051483,39.8778378 L88.2051483,39.8778378 L63.575285,39.8778378 L63.575285,46.2183784 L90.6247066,46.2183784 Z M64.0716046,46.2183784 L64.0716046,39.8778378 L52.5942124,39.8778378 L52.5942124,46.2183784 L64.0716046,46.2183784 Z M53.0284921,46.2183784 L53.0284921,39.8778378 L41.5510999,39.8778378 L41.5510999,46.2183784 L53.0284921,46.2183784 Z M25.0484711,46.84 C27.9436691,46.84 30.5700273,45.8661261 32.9275457,43.9183784 C34.4578647,45.4517117 36.1743035,46.2183784 38.0768623,46.2183784 L38.0768623,46.2183784 L41.9853796,46.2183784 L41.9853796,39.8778378 L40.2482608,39.8778378 C39.8346611,39.8778378 39.5037813,39.7327928 39.2556215,39.4427027 C38.9661016,39.1940541 38.8213417,38.8210811 38.8213417,38.3237838 L38.8213417,38.3237838 L38.8213417,15.9454054 L35.0989443,15.9454054 L32.4312261,17.9967568 C30.2805075,17.085045 28.129789,16.6291892 25.9790705,16.6291892 C22.1325931,16.6291892 18.8858353,17.976036 16.2387971,20.6697297 C13.343599,23.6535135 11.896,27.403964 11.896,31.9210811 C11.896,36.8526126 13.4676789,40.7895495 16.6110368,43.7318919 C18.9685552,45.803964 21.7810333,46.84 25.0484711,46.84 Z M26.59947,40.6237838 C24.4073915,40.6237838 22.6599327,39.8363964 21.3570936,38.2616216 C20.0542545,36.6868468 19.4028349,34.5940541 19.4028349,31.9832432 C19.4028349,29.3724324 20.1266344,27.2485586 21.5742334,25.6116216 C23.0218325,23.9746847 24.8623512,23.1562162 27.0957897,23.1562162 C28.4193088,23.1562162 29.8048679,23.4255856 31.2524669,23.9643243 L31.2524669,23.9643243 L31.2524669,39.6291892 C29.639428,40.2922523 28.088429,40.6237838 26.59947,40.6237838 Z" id="دكــه" fill-rule="nonzero"></path>
                    <polygon id="Rectangle" transform="translate(109.583333, 7.480519) rotate(-10.000000) translate(-109.583333, -7.480519) " points="103.670892 6.64665914 116.665742 6.65243167 115.495775 8.31437982 102.500925 8.30860729"></polygon>
                    <g id="Group" transform="translate(4.896000, 31.340000) rotate(90.000000) translate(-4.896000, -31.340000) translate(-4.104000, 26.840000)">
                        <polygon id="Rectangle" transform="translate(13.200000, 4.707692) rotate(-45.000000) translate(-13.200000, -4.707692) " points="10.2 1.70769231 16.1423077 1.76538462 16.2 7.70769231 10.2576923 7.65"></polygon>
                        <polygon id="Rectangle" transform="translate(4.800000, 4.707692) rotate(-45.000000) translate(-4.800000, -4.707692) " points="1.8 1.70769231 7.74230769 1.76538462 7.8 7.70769231 1.85769231 7.65"></polygon>
                    </g>
                </g>
            </g>
        </g>
    </g>
</svg>