<svg xmlns="http://www.w3.org/2000/svg" width="24" height="22.889" viewBox="0 0 24 22.889"><path d="M24,8.87a1.042,1.042,0,0,1-.375.692l-5.235,5.106,1.241,7.211a2.143,2.143,0,0,1,.015.289.851.851,0,0,1-.151.512.51.51,0,0,1-.441.209,1.164,1.164,0,0,1-.577-.173L12,19.311l-6.476,3.4a1.224,1.224,0,0,1-.577.173.524.524,0,0,1-.454-.209.854.854,0,0,1-.152-.512,2.358,2.358,0,0,1,.029-.289l1.241-7.211L.361,9.562A1.1,1.1,0,0,1,0,8.87q0-.533.808-.663l7.24-1.053L11.293.591Q11.567,0,12,0t.707.591l3.245,6.562,7.24,1.053q.808.13.808.663Z" fill="#bd9e89"/></svg>